<mxfile host="app.diagrams.net" modified="2023-02-10T09:21:34.461Z" agent="5.0 (Windows NT 10.0; Win64; x64) AppleWebKit/537.36 (KHTML, like Gecko) Chrome/109.0.0.0 Safari/537.36 Edg/109.0.1518.78" etag="MawiFA412O4pImRRgeoh" version="20.8.19" type="github">
  <diagram name="Page-1" id="eYBmQWwfdvoCTz0773Nd">
    <mxGraphModel dx="1050" dy="541" grid="1" gridSize="10" guides="1" tooltips="1" connect="1" arrows="1" fold="1" page="1" pageScale="1" pageWidth="850" pageHeight="1100" math="0" shadow="0">
      <root>
        <mxCell id="0" />
        <mxCell id="1" parent="0" />
        <mxCell id="23gzFU7edeqJzqQaGOBi-2" style="rounded=0;orthogonalLoop=1;jettySize=auto;html=1;exitX=0.5;exitY=1;exitDx=0;exitDy=0;" edge="1" parent="1" source="23gzFU7edeqJzqQaGOBi-1">
          <mxGeometry relative="1" as="geometry">
            <mxPoint x="160" y="1370" as="targetPoint" />
          </mxGeometry>
        </mxCell>
        <mxCell id="23gzFU7edeqJzqQaGOBi-1" value="Pre Post" style="ellipse;whiteSpace=wrap;html=1;" vertex="1" parent="1">
          <mxGeometry x="100" y="850" width="120" height="80" as="geometry" />
        </mxCell>
        <mxCell id="23gzFU7edeqJzqQaGOBi-3" value="Main" style="rounded=0;whiteSpace=wrap;html=1;direction=south;" vertex="1" parent="1">
          <mxGeometry x="100" y="1080" width="50" height="120" as="geometry" />
        </mxCell>
        <mxCell id="23gzFU7edeqJzqQaGOBi-4" value="" style="endArrow=classic;html=1;rounded=0;" edge="1" parent="1">
          <mxGeometry width="50" height="50" relative="1" as="geometry">
            <mxPoint x="160" y="960" as="sourcePoint" />
            <mxPoint x="200" y="1370" as="targetPoint" />
            <Array as="points">
              <mxPoint x="200" y="1100" />
            </Array>
          </mxGeometry>
        </mxCell>
        <mxCell id="23gzFU7edeqJzqQaGOBi-5" value="surcharge-format" style="rounded=0;whiteSpace=wrap;html=1;direction=south;" vertex="1" parent="1">
          <mxGeometry x="210" y="1130" width="60" height="120" as="geometry" />
        </mxCell>
      </root>
    </mxGraphModel>
  </diagram>
</mxfile>
